<?xml version="1.0" standalone="no"?>
<!DOCTYPE svg PUBLIC "-//W3C//DTD SVG 20010904//EN"
 "http://www.w3.org/TR/2001/REC-SVG-20010904/DTD/svg10.dtd">
<svg version="1.0" xmlns="http://www.w3.org/2000/svg"
 width="500.000000pt" height="500.000000pt" viewBox="0 0 500.000000 500.000000"
 preserveAspectRatio="xMidYMid meet">
<metadata>
Created by potrace 1.14, written by Peter Selinger 2001-2017
</metadata>
<g transform="translate(0.000000,500.000000) scale(0.100000,-0.100000)"
fill="#000000" stroke="none">
<path d="M345 4784 c-22 -3 -74 -12 -115 -21 l-75 -16 67 -13 c169 -32 289
-147 344 -329 29 -94 24 -274 -10 -388 -31 -103 -82 -208 -141 -293 -57 -79
-185 -199 -266 -248 -35 -21 -57 -36 -48 -33 237 78 423 105 609 87 180 -17
301 -56 422 -137 76 -50 122 -102 164 -183 70 -138 28 -353 -94 -482 -14 -15
-23 -30 -20 -34 3 -3 34 9 68 26 138 70 349 93 503 56 225 -54 365 -217 336
-393 -12 -75 -11 -77 24 -40 80 85 184 123 311 114 112 -8 223 -63 317 -158
107 -109 149 -223 134 -363 -5 -55 -18 -91 -65 -185 -246 -489 -647 -821
-1085 -897 -140 -25 -427 -15 -560 19 -187 48 -311 112 -398 206 -59 63 -77
104 -77 173 0 165 208 306 520 353 110 17 429 20 535 5 127 -18 215 -59 215
-99 0 -26 -41 -59 -104 -85 -31 -13 -53 -26 -49 -29 12 -12 98 -7 151 8 59 18
132 80 132 113 0 37 -21 69 -59 90 -126 70 -480 132 -756 132 -127 0 -326 -24
-430 -50 -177 -46 -322 -144 -386 -262 -32 -60 -34 -68 -34 -164 0 -95 2 -104
37 -175 108 -217 380 -401 725 -489 250 -63 344 -74 623 -75 273 0 325 5 515
55 253 66 406 153 596 337 l96 93 11 -39 c26 -86 8 -177 -45 -233 -16 -17 -21
-28 -13 -28 10 0 11 -16 6 -73 -7 -79 -1 -98 21 -67 8 11 23 20 34 20 31 0
114 -46 242 -133 104 -72 117 -84 117 -110 0 -40 26 -92 55 -107 13 -7 26 -24
30 -37 12 -49 35 -73 71 -73 23 0 37 -6 44 -20 13 -25 30 -26 30 -1 0 31 -29
104 -52 128 -12 13 -19 25 -16 28 12 12 39 -9 60 -46 26 -47 40 -53 82 -35 30
12 36 12 50 -2 8 -9 19 -13 22 -9 9 9 -13 52 -42 80 l-22 22 44 -1 c24 -1 44
0 44 2 0 14 -91 99 -125 116 -22 12 -57 41 -78 65 -22 24 -89 79 -150 123 -62
44 -130 95 -151 114 l-40 33 18 49 c13 34 38 68 81 109 34 33 67 70 74 83 37
71 42 356 7 475 l-17 58 57 92 c74 119 181 339 218 447 16 47 32 89 36 93 4 4
39 4 79 -1 83 -10 97 -4 230 97 44 34 83 61 86 61 3 0 5 -8 3 -17 -6 -33 43
-17 306 101 142 64 269 119 282 122 31 8 52 33 36 43 -15 9 7 92 38 144 16 27
20 41 12 46 -8 5 15 107 78 347 49 186 89 353 89 369 0 17 -6 49 -12 73 l-12
43 -250 118 c-137 65 -279 132 -314 150 -35 18 -67 29 -71 24 -4 -4 -20 -82
-35 -173 -15 -91 -33 -172 -41 -180 -7 -9 -18 -39 -24 -67 -17 -78 -55 -99
-55 -30 0 24 -6 34 -27 45 -18 8 -28 21 -28 35 l-1 22 -19 -24 c-25 -30 -25
-53 0 -76 25 -22 44 -79 36 -109 -3 -13 -23 -45 -44 -72 -57 -72 -138 -212
-188 -322 -37 -83 -47 -97 -70 -100 -19 -3 -24 -8 -19 -20 4 -9 9 -68 12 -129
l6 -113 26 7 c14 3 62 21 107 40 58 24 84 41 93 59 17 38 60 195 76 281 17 88
44 187 50 181 3 -3 -28 -158 -40 -199 -4 -10 15 -31 54 -61 l59 -46 -23 -107
c-13 -59 -25 -108 -27 -109 -1 -1 -46 -18 -98 -38 -52 -20 -135 -53 -183 -73
-49 -20 -94 -34 -102 -32 -10 4 -12 25 -8 90 6 95 -9 246 -36 357 -10 41 -38
180 -62 308 -39 212 -42 238 -32 295 25 149 94 269 235 408 96 95 108 111 123
164 20 67 15 137 -12 193 -27 55 -50 53 -106 -13 -46 -53 -124 -113 -195 -149
-32 -17 -34 -16 -63 9 -30 24 -73 33 -83 17 -3 -5 1 -20 9 -35 l14 -27 -44 0
c-37 0 -54 -8 -117 -55 -104 -79 -273 -131 -490 -150 -43 -4 -78 -11 -78 -16
0 -27 51 -34 256 -34 l212 0 -15 -28 c-19 -38 -98 -112 -134 -128 -40 -16 -32
-31 26 -50 27 -10 51 -22 53 -29 6 -17 -64 -118 -120 -172 l-50 -48 36 -15
c19 -8 47 -15 61 -15 14 0 25 -6 25 -12 0 -29 -50 -116 -94 -164 -25 -29 -46
-54 -46 -57 0 -10 64 -27 101 -27 26 0 39 -5 39 -13 0 -17 -54 -95 -83 -120
-28 -25 -12 -38 54 -42 30 -2 55 -6 57 -9 7 -17 -1 -38 -24 -65 -21 -25 -30
-29 -57 -25 -69 12 -178 75 -247 143 -87 85 -114 137 -114 218 -1 53 3 67 29
105 28 40 30 47 23 95 -76 515 -1185 1255 -2118 1412 -117 20 -303 32 -375 25z
m1335 -621 c0 -8 -531 -245 -536 -240 -3 3 515 244 529 246 4 1 7 -2 7 -6z
m1937 -68 c14 -10 19 -22 16 -36 -4 -16 4 -30 35 -58 58 -54 67 -110 17 -111
-24 0 -77 43 -92 74 -14 30 -14 38 -3 51 18 22 20 53 3 66 -14 13 -17 29 -5
29 4 0 17 -7 29 -15z m743 -281 c14 -8 18 -13 8 -10 -30 9 -45 -29 -72 -194
-16 -91 -52 -285 -82 -431 -30 -147 -54 -271 -54 -276 0 -6 17 -22 37 -36 21
-15 33 -27 27 -27 -6 0 -27 15 -47 33 l-36 32 44 205 c47 219 113 580 122 667
6 56 13 61 53 37z m85 -89 c33 -18 93 -63 134 -99 47 -41 102 -77 146 -97 l71
-32 -67 -34 c-46 -23 -81 -50 -109 -83 -48 -58 -138 -106 -218 -117 l-53 -8
-25 -62 c-14 -34 -37 -119 -53 -189 -15 -70 -32 -129 -37 -131 -5 -1 -19 5
-32 15 l-23 18 59 294 c33 162 70 357 83 433 26 157 18 150 124 92z m-2181
-53 c-34 -31 -112 -104 -175 -161 -84 -76 -71 -61 51 57 91 89 170 161 175
161 6 0 -17 -26 -51 -57z m2291 37 c-4 -6 -1 -9 7 -7 7 2 89 -33 180 -77 173
-82 178 -86 178 -148 0 -22 -7 -31 -32 -41 -18 -8 -39 -11 -47 -8 -10 4 -12 1
-6 -8 6 -9 4 -11 -4 -5 -8 4 -24 -1 -40 -13 -31 -23 -107 -62 -118 -62 -4 1
12 19 37 42 25 23 36 35 25 28 -11 -8 -38 -31 -60 -51 -26 -24 -78 -54 -145
-82 -113 -48 -143 -59 -149 -57 -2 1 -7 -4 -12 -11 -10 -17 -23 -4 -16 16 4 8
17 15 30 15 33 0 132 35 181 64 23 13 59 45 80 71 42 50 131 100 199 111 41 7
51 24 12 24 -33 0 -143 42 -191 73 -51 33 -98 83 -85 91 5 4 34 -9 63 -27 67
-43 133 -77 150 -77 7 0 -10 11 -39 24 -28 13 -77 40 -108 60 -44 29 -60 34
-74 26 -24 -12 -47 10 -29 28 15 15 21 15 13 1z m365 -303 c0 -6 -148 -571
-166 -633 -11 -39 -20 -53 -36 -55 -12 -2 -29 -16 -38 -33 -17 -31 -45 -44
-61 -28 -6 6 4 30 27 64 48 71 57 97 49 139 -6 29 -8 31 -16 17 -6 -9 -19 -17
-29 -17 -23 0 -43 -34 -35 -59 9 -29 -38 -61 -91 -61 -36 0 -44 3 -44 18 0 11
9 27 20 37 23 21 26 60 5 69 -8 3 -12 12 -9 21 18 47 -61 -21 -82 -71 -7 -17
-16 -55 -20 -85 -4 -30 -13 -62 -21 -71 -15 -17 -140 -64 -148 -56 -5 4 99
505 112 546 7 20 57 45 288 142 271 115 295 125 295 116z m-2236 -128 c-5 -7
-39 -62 -77 -123 -71 -112 -112 -167 -63 -85 100 171 131 220 139 220 4 0 5
-6 1 -12z m2024 -669 c-5 -34 -108 -61 -108 -29 0 7 87 46 108 49 2 1 2 -8 0
-20z m-157 -84 c24 -9 50 -18 58 -21 8 -2 -91 -52 -219 -109 -129 -57 -236
-103 -238 -101 -11 12 27 51 110 113 183 138 205 147 289 118z m-866 -2235 c3
-5 1 -10 -4 -10 -6 0 -11 5 -11 10 0 6 2 10 4 10 3 0 8 -4 11 -10z"/>
<path d="M3609 3983 c9 -18 47 -55 68 -67 26 -15 21 15 -8 48 -33 38 -78 52
-60 19z"/>
<path d="M4615 3635 c48 -43 145 -92 200 -100 31 -4 27 -1 -20 13 -72 22 -94
33 -165 84 l-55 39 40 -36z"/>
<path d="M4788 3444 c-16 -8 -28 -17 -28 -20 0 -2 12 2 28 9 15 8 34 17 42 20
13 5 13 5 0 6 -8 0 -27 -7 -42 -15z"/>
<path d="M3090 3958 c0 -8 11 -25 25 -38 l24 -23 102 32 c55 18 99 34 97 36
-2 3 -31 0 -64 -5 -54 -9 -79 -8 -156 6 -20 4 -28 1 -28 -8z"/>
<path d="M3485 1590 l-57 -90 15 -62 c9 -35 18 -88 22 -119 5 -47 10 -58 31
-67 13 -7 33 -26 43 -43 19 -31 47 -157 37 -166 -3 -3 4 -13 15 -22 11 -9 33
-45 47 -80 15 -36 33 -66 40 -69 7 -2 10 2 7 10 -3 7 -1 18 3 25 12 19 178 43
292 43 l105 -1 20 -31 c12 -19 35 -36 60 -44 22 -7 49 -25 61 -40 18 -22 22
-23 28 -9 12 32 6 90 -14 123 -33 53 -26 71 13 34 33 -32 61 -41 72 -22 11 18
25 10 42 -25 21 -45 33 -36 33 26 0 51 0 50 -70 108 -27 22 -17 27 23 12 18
-7 30 -5 46 5 12 9 30 13 42 9 18 -6 19 -4 11 12 -39 72 -133 104 -185 63 -22
-17 -50 -22 -174 -30 -166 -11 -303 -13 -303 -5 0 3 23 40 51 81 68 101 82
138 74 190 -5 34 -16 52 -58 91 -67 63 -132 107 -210 143 -107 49 -98 52 -162
-50z"/>
</g>
</svg>
